<?xml version="1.0" encoding="UTF-8" standalone="no"?>
<!DOCTYPE svg PUBLIC "-//W3C//DTD SVG 1.1//EN" "http://www.w3.org/Graphics/SVG/1.1/DTD/svg11.dtd">
<svg width="100%" height="100%" viewBox="0 0 1500 400" version="1.1" xmlns="http://www.w3.org/2000/svg" xmlns:xlink="http://www.w3.org/1999/xlink" xml:space="preserve" xmlns:serif="http://www.serif.com/" style="fill-rule:evenodd;clip-rule:evenodd;stroke-linejoin:round;stroke-miterlimit:2;">
    <g transform="matrix(0.781675,0,0,0.781675,892.308,51.9473)">
        <path d="M559.376,29.491C647.634,29.491 719.289,101.146 719.289,189.405C719.289,277.663 647.634,349.318 559.376,349.318C471.117,349.318 399.462,277.663 399.462,189.405C399.462,101.146 471.117,29.491 559.376,29.491ZM559.376,133.435C590.266,133.435 615.345,158.514 615.345,189.405C615.345,220.295 590.266,245.374 559.376,245.374C528.485,245.374 503.406,220.295 503.406,189.405C503.406,158.514 528.485,133.435 559.376,133.435Z" style="fill:rgb(145,129,214);"/>
    </g>
    <g transform="matrix(0.781675,0,0,0.781675,615.841,51.9473)">
        <path d="M559.376,29.491C647.634,29.491 719.289,101.146 719.289,189.405C719.289,277.663 647.634,349.318 559.376,349.318C471.117,349.318 399.462,277.663 399.462,189.405C399.462,101.146 471.117,29.491 559.376,29.491ZM559.376,133.435C590.266,133.435 615.345,158.514 615.345,189.405C615.345,220.295 590.266,245.374 559.376,245.374C528.485,245.374 503.406,220.295 503.406,189.405C503.406,158.514 528.485,133.435 559.376,133.435Z" style="fill:rgb(145,129,214);"/>
    </g>
    <g id="_3" serif:id="3" transform="matrix(1.4732,1.4732,-1.4732,1.4732,246.322,-738.32)">
        <path d="M515.49,25.441C462.473,25.441 419.494,68.42 419.494,121.437C419.494,174.419 462.508,217.433 515.49,217.433C568.507,217.433 611.486,174.454 611.486,121.437L515.49,121.437L515.49,25.441Z" style="fill:rgb(145,129,214);"/>
    </g>
    <g transform="matrix(0.781675,0,0,0.781675,34.3676,51.9473)">
        <path d="M559.376,29.491C647.634,29.491 719.289,101.146 719.289,189.405C719.289,277.663 647.634,349.318 559.376,349.318C471.117,349.318 399.462,277.663 399.462,189.405C399.462,101.146 471.117,29.491 559.376,29.491ZM559.376,133.435C590.266,133.435 615.345,158.514 615.345,189.405C615.345,220.295 590.266,245.374 559.376,245.374C528.485,245.374 503.406,220.295 503.406,189.405C503.406,158.514 528.485,133.435 559.376,133.435Z" style="fill:rgb(145,129,214);"/>
    </g>
    <g id="_1" serif:id="1" transform="matrix(1.4732,1.4732,-1.4732,1.4732,-334.675,-738.32)">
        <path d="M515.49,25.441C462.473,25.441 419.494,68.42 419.494,121.437C419.494,174.419 462.508,217.433 515.49,217.433C568.507,217.433 611.486,174.454 611.486,121.437L515.49,121.437L515.49,25.441Z" style="fill:rgb(145,129,214);"/>
    </g>
</svg>
